<?xml version="1.0" encoding="UTF-8" standalone="no"?>
<svg
   version="1.1"
   width="121"
   height="154"
    viewBox="0 0 121 154"
   id="svg12"
   xmlns="http://www.w3.org/2000/svg"
   xmlns:svg="http://www.w3.org/2000/svg">
  <defs
     id="defs12" />
  <path
     d="M 0,0.07977682 C 19.83903,-0.811865 37.261266,5.7865231 52,19.079777 c 0.684492,0.59168 1.368984,1.183359 2.074219,1.792969 C 68.216077,33.903259 76.382192,53.29094 77.25,72.321964 77.466506,81.398802 76.587333,90.136859 75,99.079777 c 2.790736,2.022123 5.582768,4.042453 8.375,6.062503 0.774727,0.56139 1.549453,1.12277 2.347656,1.70117 5.721407,4.13738 11.491428,8.18619 17.277344,12.23633 0.33,-24.420003 0.66,-48.840003 1,-74.000003 5.61,0 11.22,0 17,0 0,35.64 0,71.280003 0,108.000003 -3.56439,-0.8911 -4.89755,-1.41903 -7.69531,-3.48438 -0.70673,-0.51651 -1.41346,-1.03302 -2.1416,-1.56518 -0.75507,-0.56115 -1.51014,-1.12229 -2.28809,-1.70044 -1.62228,-1.18896 -3.24468,-2.37776 -4.86719,-3.56641 -1.24475,-0.91676 -1.24475,-0.91676 -2.51465,-1.85205 -3.897449,-2.86317 -7.820316,-5.69081 -11.74316,-8.51904 -0.738633,-0.53359 -1.477266,-1.06718 -2.238281,-1.61694 C 80.693099,125.85069 73.851024,120.95921 67,116.07978 c -0.594258,0.82242 -1.188516,1.64484 -1.800781,2.49219 C 51.446472,137.25288 34.771042,148.52557 12,153.07978 c -3.96,0 -7.92,0 -12,0 0,-35.64 0,-71.280003 0,-108.000003 5.8750448,3.916697 11.668872,7.854096 17.375,12 0.7653,0.553975 1.530601,1.107949 2.319092,1.678711 6.533372,4.738271 13.02019,9.538767 19.507812,14.339355 6.506667,4.799967 13.10773,9.441614 19.798096,13.981934 0.719896,-19.037252 -2.839834,-34.99088 -15,-50 -0.52207,-0.649688 -1.044141,-1.299375 -1.582031,-1.96875 C 31.436732,22.878763 15.577054,19.045813 0,17.079777 0,11.469777 0,5.8597768 0,0.07977682 Z M 17,79.079777 c 0,17.82 0,35.640003 0,54.000003 13.743912,-2.74878 24.830819,-11.7003 32.8125,-23 1.415683,-2.01851 1.415683,-2.01851 2.1875,-4 -1.095507,-3.28652 -1.527271,-3.64579 -4.253906,-5.49609 -0.682559,-0.47083 -1.365117,-0.941667 -2.06836,-1.426765 C 44.938457,98.657091 44.19918,98.157257 43.4375,97.642277 41.893024,96.578055 40.350095,95.511584 38.808594,94.443058 37.619192,93.618622 37.619192,93.618622 36.405762,92.777531 31.824671,89.54464 27.371559,86.14074 22.915771,82.738224 20.219711,80.235524 20.219711,80.235524 17,79.079777 Z"
     fill="currentColor"
     id="path1" />
</svg>
